<svg xmlns="http://www.w3.org/2000/svg" viewBox="0 0 500 500"><g id="freepik--Floor--inject-27"><ellipse id="freepik--floor--inject-27" cx="249.12" cy="358.2" rx="231.42" ry="128.63" style="fill:#f5f5f5"></ellipse></g><g id="freepik--character-2--inject-27"><g id="freepik--chartacter-on-a-table--inject-27"><g id="freepik--Chair--inject-27"><polygon points="379.1 240.36 382.88 240.47 386.02 198.49 382.24 198.38 379.1 240.36" style="fill:#455a64"></polygon><polygon points="411.39 258.08 415.17 258.19 418.3 216.21 414.52 216.1 411.39 258.08" style="fill:#455a64"></polygon><path d="M410.11,261.68h6.26l9.09,64.95h0a.76.76,0,0,1-.45.69,2.5,2.5,0,0,1-2.23,0,.87.87,0,0,1-.45-.54h0Z" style="fill:#455a64"></path><path d="M372.59,240h6.25l9.1,64.94h0a.76.76,0,0,1-.46.69,2.42,2.42,0,0,1-2.22,0,.82.82,0,0,1-.45-.54h0Z" style="fill:#455a64"></path><path d="M324.27,325.47l10.8-63.79h6.25l-13.91,63.94h0a.84.84,0,0,1-.44.53,2.44,2.44,0,0,1-2.23,0,.72.72,0,0,1-.45-.68Z" style="fill:#455a64"></path><path d="M364.92,348.94,374,284h6.25l-12.2,65.1h0a.84.84,0,0,1-.44.53,2.44,2.44,0,0,1-2.23,0,.73.73,0,0,1-.45-.68Z" style="fill:#455a64"></path><path d="M335.07,261.68h6.25l-2.54,11.69q-2.13-1.77-4.16-3.63a4.15,4.15,0,0,1-.75-1Z" style="fill:#37474f"></path><path d="M416.37,261.68l1.08,7.76a4.87,4.87,0,0,1-1.21,2.11c-1.16,1.07-2.39,2.14-3.67,3.21l-2.46-13.08Z" style="fill:#37474f"></path><path d="M372.76,292.94,374,284h6.25l-2,10.9Q375.43,294,372.76,292.94Z" style="fill:#37474f"></path><path d="M378.22,241.69a6.62,6.62,0,0,1,.85-.1l7.1,50.78c-1.14.62-2.28,1.22-3.43,1.81l-9.63-51.41C374.79,242.38,376.49,242,378.22,241.69Z" style="fill:#37474f"></path><path d="M378.29,290c-17.7-5.86-32-14.45-43.67-25.17a5.05,5.05,0,0,1-1.41-3.24v-3.37a4.3,4.3,0,0,1,1.55-3.08,105.75,105.75,0,0,1,43.46-18.36,9.24,9.24,0,0,1,3.74.2q22.41,6.84,34.39,19.69a5.62,5.62,0,0,1,1.29,3.35v3.38a5,5,0,0,1-1.4,3.24c-9,8.24-21.76,16.71-34.4,23.1A5.29,5.29,0,0,1,378.29,290Z" style="fill:#8AB0B0"></path><path d="M333.21,258.19v3.37a5.05,5.05,0,0,0,1.41,3.24c11.66,10.72,26,19.32,43.66,25.17a5.07,5.07,0,0,0,2,.16V236.67a8.37,8.37,0,0,0-2,.08,105.73,105.73,0,0,0-43.47,18.37A4.29,4.29,0,0,0,333.21,258.19Z" style="opacity:0.4"></path><path d="M380.26,236.67v53.46a4.37,4.37,0,0,0,1.58-.43c12.63-6.38,25.44-14.85,34.4-23.09a5,5,0,0,0,1.4-3.24V260a5.62,5.62,0,0,0-1.29-3.35Q404.37,243.79,382,237A7.35,7.35,0,0,0,380.26,236.67Z" style="opacity:0.5"></path><path d="M416.24,259.36c-9,8.25-21.76,16.7-34.4,23.08a5.36,5.36,0,0,1-3.55.27c-17.7-5.83-32-14.41-43.67-25.14a1.54,1.54,0,0,1,.14-2.46,105.62,105.62,0,0,1,43.46-18.36,9.24,9.24,0,0,1,3.74.2q22.41,6.84,34.39,19.66A2,2,0,0,1,416.24,259.36Z" style="fill:#8AB0B0"></path><path d="M416.24,259.36c-9,8.25-21.76,16.7-34.4,23.08a5.36,5.36,0,0,1-3.55.27c-17.7-5.83-32-14.41-43.67-25.14a1.54,1.54,0,0,1,.14-2.46,105.62,105.62,0,0,1,43.46-18.36,9.24,9.24,0,0,1,3.74.2q22.41,6.84,34.39,19.66A2,2,0,0,1,416.24,259.36Z" style="opacity:0.30000000000000004"></path><path d="M425.7,209.27q-18-23.1-47-27.11a6.38,6.38,0,0,0-3.47.66,3.59,3.59,0,0,0-1.56,2.83v14.2a2.25,2.25,0,0,0,1.91,2.17q29,4,47,27.11a2.17,2.17,0,0,0,2.72.63,3.56,3.56,0,0,0,1.57-2.83v-14.2A6.61,6.61,0,0,0,425.7,209.27Z" style="fill:#8AB0B0"></path><path d="M413,218.83,426.55,211a5.8,5.8,0,0,1,.32,1.74v14.2a3.56,3.56,0,0,1-1.57,2.83,2.17,2.17,0,0,1-2.72-.63A76.42,76.42,0,0,0,413,218.83Z" style="opacity:0.5"></path><path d="M413,218.83Q397.41,205,375.62,202a2.25,2.25,0,0,1-1.91-2.17v-14.2a3.59,3.59,0,0,1,1.56-2.83,6.38,6.38,0,0,1,3.47-.66q29,4,47,27.11a5.88,5.88,0,0,1,.85,1.72Z" style="opacity:0.30000000000000004"></path><path d="M422.57,229.13Q404.6,206,375.62,202a2.25,2.25,0,0,1-1.91-2.17v-14.2a1.64,1.64,0,0,1,1.91-1.68q29,4,47,27.11a6.56,6.56,0,0,1,1.16,3.45v14.21C423.74,229.8,423.23,230,422.57,229.13Z" style="fill:#8AB0B0"></path><path d="M422.57,229.13Q404.6,206,375.62,202a2.25,2.25,0,0,1-1.91-2.17v-14.2a1.64,1.64,0,0,1,1.91-1.68q29,4,47,27.11a6.56,6.56,0,0,1,1.16,3.45v14.21C423.74,229.8,423.23,230,422.57,229.13Z" style="opacity:0.4"></path></g><g id="freepik--Character--inject-27"><path d="M371.2,165.42c-7.09.5-10.21,1.51-13,8.15-2.33,5.62-9.93,33.58-9.93,33.58s-15.1,9.33-22.89,13.24l8.45,6.81s19.06-6.58,22.41-8.18,3.28-2.55,6.93-14.3C368.42,188,371.2,165.42,371.2,165.42Z" style="fill:#ffbda7"></path><path d="M371.66,165c-4.21-.21-9.78,1.07-12.65,5.68s-8.73,26.79-8.73,26.79,7.56,6.59,17.3,6.46l4.8-22.95Z" style="fill:#8AB0B0"></path><path d="M349.23,322.06s-1.08,12.45-2.94,16.51a61.93,61.93,0,0,1-7.59,13c-.74,1-2.45,2.75-3.06,3.52a1.43,1.43,0,0,0,.27,2.19c1.69,1.45,8.54,1.46,12.21-1.61s6.62-7.95,8.78-10.38c1.08-1.21,2.1-2.37,2.84-3.23a3.08,3.08,0,0,0,.62-3c-.1-.3-.2-.64-.32-1.05-1.08-3.64.71-14.21.71-14.21C357.22,319.41,353.33,321.09,349.23,322.06Z" style="fill:#ffbda7"></path><path d="M360.93,342.63a3.91,3.91,0,0,1-.09,2c-.35.93-2.83,2.7-4.12,3.42a8.3,8.3,0,0,0-3.33,3.82c-1.46,2.8-3.72,5.85-6.66,7.38a21.68,21.68,0,0,1-12.76,2c-5.41-.69-6-3.83-6-3.83s-.44-3,.87-3.5S360.93,342.63,360.93,342.63Z" style="fill:#263238"></path><path d="M361.48,338.93a8.6,8.6,0,0,1-.55,3.7c-1.47,2.27-5.16,3.18-7.17,6.28s-4.34,7.84-11.29,9.59-12.4-.21-13.8-2.15-.31-3.88,4.07-6.53c4.65-2.83,10-10,10-10,1.75-2.45,2.41-5.62,3.33-8.46.08-.27.23-.6.52-.62s.52.4.72.69a2.29,2.29,0,0,0,1.39.78,16.93,16.93,0,0,0,5.72.73,1.61,1.61,0,0,1,1.21.27,1.43,1.43,0,0,1,.29,1.07,13.62,13.62,0,0,1-.13,1.42,1.34,1.34,0,0,0,0,.69.86.86,0,0,0,.82.5,1.78,1.78,0,0,0,1-.35,4.27,4.27,0,0,0,2.17-3s0-.72.06-1.37a1.72,1.72,0,0,1,.91,1,15.08,15.08,0,0,1,.24,1.66A28.26,28.26,0,0,1,361.48,338.93Z" style="fill:#37474f"></path><path d="M319.37,305.76s-1.36,12.87-3,17a62.13,62.13,0,0,1-7,13.3c-.7,1-2.32,2.85-2.9,3.64a1.43,1.43,0,0,0,.37,2.18c1.75,1.38,8.59,1.08,12.13-2.15s6.25-8.24,8.3-10.76c1-1.26,2-2.47,2.7-3.35a3.13,3.13,0,0,0,.48-3c-.11-.29-.23-.63-.37-1-1.23-3.6,2-13.56,2-13.56C328.31,303.82,323.42,304.62,319.37,305.76Z" style="fill:#ffbda7"></path><path d="M331.15,327a4,4,0,0,1-.09,2c-.35.92-2.84,2.7-4.12,3.41a8.35,8.35,0,0,0-3.33,3.82c-1.47,2.81-3.72,5.85-6.66,7.38a21.69,21.69,0,0,1-12.76,2c-5.41-.7-6-3.84-6-3.84s-.43-3,.88-3.5S331.15,327,331.15,327Z" style="fill:#263238"></path><path d="M331.69,323.34a8.6,8.6,0,0,1-.54,3.7c-1.47,2.27-5.17,3.18-7.17,6.28s-4.34,7.84-11.3,9.59-12.4-.22-13.8-2.15-.31-3.88,4.07-6.54c4.65-2.82,10-10,10-10,1.75-2.46,2.41-5.63,3.32-8.46.09-.28.24-.6.53-.62s.52.39.72.68a2.17,2.17,0,0,0,1.38.78,15.16,15.16,0,0,0,1.88.46,17.1,17.1,0,0,0,3.85.28,1.58,1.58,0,0,1,1.21.27,1.4,1.4,0,0,1,.28,1.06,9.61,9.61,0,0,1-.13,1.42,1.51,1.51,0,0,0,0,.7.87.87,0,0,0,.83.5,2,2,0,0,0,.95-.35,4.13,4.13,0,0,0,2.07-3,12.63,12.63,0,0,1,.16-1.37,1.82,1.82,0,0,1,.91,1c.15.54.13,1.12.24,1.66A28.38,28.38,0,0,1,331.69,323.34Z" style="fill:#37474f"></path><path d="M409.76,231.28l-16.55-1.18-33.65-2.71s-30.89,17.29-35.29,27c-2.55,5.63-5,48.61-5.47,55,2.32,1.84,9.1,3.85,11.94,3.37,1.76-5.07,3.29-7.24,5.74-14.7,2-6.08,3.84-10.14,5.27-14.34a62.44,62.44,0,0,0,3-15.2s10.9-7.46,19.08-10.57c-4.51,4.93-11,13.84-11.84,15.8-2.51,5.65-3.43,46.18-3.43,51.8C350.37,328,359,328.5,361.18,327c2.62-9.2,4.56-13.63,6.67-21.19,3.36-12.05,2.27-16.94,1.78-21.34,0,0,8.71-5.54,20-14,4.76-3.57,10.64-8.49,13.9-12.25C409.5,251.32,410.39,239.13,409.76,231.28Z" style="fill:#37474f"></path><path d="M363.79,258l9.32-10.4s-9.48-4.16-11.24-13.15c0,0-1.54,7.58,5.71,13.74L361.26,257l-16.55,11.56C351.55,265,358.34,261.29,363.79,258Z" style="fill:#263238"></path><path d="M386.59,164.85a77.7,77.7,0,0,1,12.9,1.63c4.77,1.63,6.16,2.87,8.47,9.46,3.45,9.83,2.39,23.38,2.39,32.67,0,12.34-.29,26.61-.29,26.61C399.63,244,365.67,240,360,227.61c0,0,1.32-15.5,1.32-43.72,0-13.68,4.93-19.33,13.67-19.33C375,164.56,382.2,164.67,386.59,164.85Z" style="fill:#455a64"></path><path d="M379.32,133.22a10.42,10.42,0,1,1-10.88-9.94A10.42,10.42,0,0,1,379.32,133.22Z" style="fill:#263238"></path><path d="M396,141.85s-1.67,10.53-2.44,12.28a4.58,4.58,0,0,1-2.53,2.32l-.18-7.35Z" style="fill:#263238"></path><path d="M394,127a3.47,3.47,0,0,1,3.22,1.44c1.46,2.14.72,7.62-1.21,13.45l-4,.66Z" style="fill:#263238"></path><path d="M395.33,128.1l4.89-.65a2.33,2.33,0,0,0-2.62-2.24A2.73,2.73,0,0,0,395.33,128.1Z" style="fill:#263238"></path><path d="M395.75,126.86l3.08-4a2.36,2.36,0,0,0-3.44.39A2.69,2.69,0,0,0,395.75,126.86Z" style="fill:#263238"></path><path d="M390.79,142.57c.83.46,1.9-1.2,2.85-2.33s3.73-2.3,5.5,1.18a5.8,5.8,0,0,1-3,8,3.94,3.94,0,0,1-4.25-.7l.18,17.35c-4.28,10.43-21.55,8.09-15.39,1.06v-6.6s-3,.31-5.79.35c-2.32,0-4.9-1.47-6.13-5a52.33,52.33,0,0,1-2.55-13.2,51.68,51.68,0,0,1,0-8.15c1.18-11.57,15.2-15.19,23-10.54S390.79,142.57,390.79,142.57Z" style="fill:#ffbda7"></path><path d="M372.9,132.46a26.65,26.65,0,0,0,8.23-2.84,1,1,0,0,1,.8-.19c.3.09.44.4.56.68a27.53,27.53,0,0,0,1.66,3.86,5.87,5.87,0,0,0,3.09,2.72,2.44,2.44,0,0,1,1.31.63,2.33,2.33,0,0,1,.43,1.35,10.72,10.72,0,0,1-.22,1.86c-.12.85-.33,2.32.18,3.05a1.36,1.36,0,0,0,2,.26,8.27,8.27,0,0,0,1.48-2,12.33,12.33,0,0,1,1.59-2c.56-.54.28-1.67.37-2.42.19-1.51.26-3,.31-4.56,0-1.29.82-4.19,1-5.46.27-1.83.08-1.18-.61-2.46-1.5-6-8.23-8.19-13.5-7.63a55.39,55.39,0,0,1-7.05.34,51.46,51.46,0,0,1-8.84-.82,2.36,2.36,0,0,0-1.21,0,1.51,1.51,0,0,0-.8,1.7,4.41,4.41,0,0,0,.92,1.8,9.91,9.91,0,0,0-2.8-.78,3.32,3.32,0,0,0-2.69.89,4,4,0,0,0-.71,3.35,10.71,10.71,0,0,0,7.21,8.21A15.49,15.49,0,0,0,372.9,132.46Z" style="fill:#263238"></path><path d="M376.7,160.5s7.16-1.52,9.62-3a8.47,8.47,0,0,0,3.33-3.75,12.29,12.29,0,0,1-1.79,4.33c-1.74,2.54-11.16,4.78-11.16,4.78Z" style="fill:#f0997a"></path><path d="M376.63,141.41a1.46,1.46,0,1,0,2.9,0,1.5,1.5,0,0,0-1.46-1.55A1.52,1.52,0,0,0,376.63,141.41Z" style="fill:#263238"></path><path d="M377.46,136.65l3.12,1.75a2,2,0,0,0-.75-2.56A1.69,1.69,0,0,0,377.46,136.65Z" style="fill:#263238"></path><path d="M379,151l-5,2a2.63,2.63,0,0,0,3.45,1.71A3,3,0,0,0,379,151Z" style="fill:#f0997a"></path><path d="M363.92,139l2.81-2.3a1.68,1.68,0,0,0-2.46-.37A2,2,0,0,0,363.92,139Z" style="fill:#263238"></path><path d="M364.86,142a1.45,1.45,0,1,0,1.43-1.58A1.5,1.5,0,0,0,364.86,142Z" style="fill:#263238"></path><polygon points="372 141.3 372.38 150.65 367.16 149.61 372 141.3" style="fill:#f0997a"></polygon><path d="M387.73,119.77c4,2.62,8.54,7.61,8.28,18.5a5.78,5.78,0,0,1,2.64,5.57c-.27,3.4-2.91,6.16-5.89,6.15s-5.19-2.77-4.92-6.18c.2-2.54,2.29-5.41,4.44-5.7a21.62,21.62,0,0,0-1.83-10.88c-3.45-8.19-11.08-9-18.08-9.62C374.8,116.49,382.35,116.22,387.73,119.77Z" style="fill:#8AB0B0"></path><path d="M387.73,119.77c4,2.62,8.54,7.61,8.28,18.5a5.78,5.78,0,0,1,2.64,5.57c-.27,3.4-2.91,6.16-5.89,6.15s-5.19-2.77-4.92-6.18c.2-2.54,2.29-5.41,4.44-5.7a21.62,21.62,0,0,0-1.83-10.88c-3.45-8.19-11.08-9-18.08-9.62C374.8,116.49,382.35,116.22,387.73,119.77Z" style="opacity:0.5"></path><path d="M387.19,143.79c.3-3.78,3.22-6.83,6.53-6.82a5.09,5.09,0,0,1,1.48.22c.4.13,1.63.64,1.87.74a6.24,6.24,0,0,1,3.58,6.48c-.3,3.77-3.22,6.82-6.53,6.82a5,5,0,0,1-1.78-.33l-1.72-.69A6.27,6.27,0,0,1,387.19,143.79Z" style="fill:#8AB0B0"></path><path d="M387.19,143.79c.3-3.78,3.22-6.83,6.53-6.82a5.09,5.09,0,0,1,1.48.22c.4.13,1.63.64,1.87.74a6.24,6.24,0,0,1,3.58,6.48c-.3,3.77-3.22,6.82-6.53,6.82a5,5,0,0,1-1.78-.33l-1.72-.69A6.27,6.27,0,0,1,387.19,143.79Z" style="opacity:0.30000000000000004"></path><path d="M388.67,144.38c.3-3.77,3.22-6.82,6.53-6.81s5.74,3.07,5.45,6.84-3.22,6.82-6.53,6.82S388.37,148.15,388.67,144.38Z" style="fill:#8AB0B0"></path><path d="M388.67,144.38c.3-3.77,3.22-6.82,6.53-6.81s5.74,3.07,5.45,6.84-3.22,6.82-6.53,6.82S388.37,148.15,388.67,144.38Z" style="opacity:0.1"></path><path d="M391.83,144.39a3.35,3.35,0,0,1,3.08-3.22,2.79,2.79,0,0,1,2.57,3.23,3.35,3.35,0,0,1-3.08,3.22A2.78,2.78,0,0,1,391.83,144.39Z" style="fill:#455a64"></path></g><g id="freepik--Table--inject-27"><g id="freepik--table--inject-27"><path d="M308,354.92c-10.15-5.86-26.6-5.86-36.75,0-5.07,2.93-7.6,6.77-7.6,10.61,0,.4,0,2.84,0,3.3.08,3.78,2.61,7.54,7.6,10.42,10.15,5.86,26.6,5.86,36.75,0,5-2.89,7.55-6.68,7.6-10.48,0-.44,0-2.89,0-3.3C315.53,361.65,313,357.83,308,354.92Z" style="fill:#37474f"></path><path d="M271.2,376.14c-10.15-5.86-10.15-15.36,0-21.22s26.6-5.86,36.75,0,10.15,15.36,0,21.22S281.35,382,271.2,376.14Z" style="fill:#455a64"></path><path d="M292.79,363h0v-63.6h-6.47V363h0a1.5,1.5,0,0,0,.92,1.48,5.06,5.06,0,0,0,4.58,0A1.49,1.49,0,0,0,292.79,363Z" style="fill:#37474f"></path><path d="M342.85,240.67c-29.46-17-77.23-17-106.69,0-14.73,8.5-22.09,19.65-22.08,30.8v2.16c0,11.15,7.35,22.3,22.08,30.8,29.46,17,77.23,17,106.69,0,14.73-8.5,22.09-19.65,22.08-30.8v-2.16C364.94,260.32,357.58,249.18,342.85,240.67Z" style="fill:#455a64"></path><path d="M342.92,235c-29.46-17-77.23-17-106.69,0-14.74,8.5-22.09,19.65-22.09,30.8,0,2.28,0,1.42,0,3.71,0,11.15,7.35,22.29,22.09,30.8,29.46,17,77.23,17,106.69,0C357.65,291.82,365,279.13,365,268v-2.16C365,254.67,357.65,243.52,342.92,235Z" style="fill:#8AB0B0"></path><path d="M342.92,235c-29.46-17-77.23-17-106.69,0-14.74,8.5-22.09,19.65-22.09,30.8,0,2.28,0,1.42,0,3.71,0,11.15,7.35,22.29,22.09,30.8,29.46,17,77.23,17,106.69,0C357.65,291.82,365,279.13,365,268v-2.16C365,254.67,357.65,243.52,342.92,235Z" style="fill:#fff;opacity:0.4"></path><path d="M342.92,235c-29.46-17-77.23-17-106.69,0-14.74,8.5-22.09,19.65-22.09,30.8,0,2.28,0,1.42,0,3.71,0,11.15,7.35,22.29,22.09,30.8,29.46,17,77.23,17,106.69,0C357.65,291.82,365,279.13,365,268v-2.16C365,254.67,357.65,243.52,342.92,235Z" style="opacity:0.1"></path><ellipse cx="289.57" cy="265.82" rx="75.44" ry="43.56" style="fill:#8AB0B0"></ellipse><path d="M236.16,296.62c-29.46-17-29.46-44.59,0-61.6s77.23-17,106.69,0,29.47,44.59,0,61.6S265.62,313.63,236.16,296.62Z" style="fill:#fff;opacity:0.85"></path></g></g><g id="freepik--Laptop--inject-27"><path id="freepik--shadow--inject-27" d="M275.53,246.26,306,228.68a1.76,1.76,0,0,1,1.75,0l52.84,30.51a.39.39,0,0,1,0,.68l-30.74,17.75Z" style="opacity:0.1"></path><path d="M277.8,242.56v.68a2.83,2.83,0,0,0,1.41,2.44l49.22,28.42a2.84,2.84,0,0,0,2.82,0l26.83-15.44a2.81,2.81,0,0,0,1.4-2.43v-1h0a.36.36,0,0,1-.17.31l-29.47,17Z" style="fill:#37474f"></path><path d="M329.84,272.6v1.87a2.8,2.8,0,0,1-1.41-.37l-49.22-28.42a2.81,2.81,0,0,1-1.41-2.44v-.68Z" style="fill:#263238"></path><path d="M277.8,242.56,307,225.71a1.66,1.66,0,0,1,1.67,0l50.63,29.23a.38.38,0,0,1,0,.65l-29.45,17Z" style="fill:#455a64"></path><polygon points="330.1 270.12 345.85 261.04 299.82 234.47 284 243.5 330.1 270.12" style="fill:#37474f"></polygon><polygon points="284 243.5 284.6 243.85 299.82 235.16 345.24 261.39 345.84 261.05 299.82 234.47 284 243.5" style="fill:#263238"></polygon><polygon points="337.84 244.87 337.55 245.03 329.84 249.49 316.12 241.57 315.83 241.4 323.83 236.78 337.84 244.87" style="fill:#263238"></polygon><polygon points="337.55 245.03 329.84 249.49 316.12 241.57 323.83 237.11 337.55 245.03" style="fill:#37474f"></polygon><path id="freepik--Arm--inject-27" d="M348.76,206.81c-4.06,2.39-9.15,5.51-12.11,7.15s-5.12,2.56-8.45,4.22c-2.56,1.27-5.78,2.34-7.64,4.08s-11.36,11.17-13.43,12.8-1,3.4,2.84,4.53a11.58,11.58,0,0,0,9.27-1,38.9,38.9,0,0,0,6.32-4.69,9.59,9.59,0,0,0,5.11-1.73c2-1.65,3.24-3.62,4.41-4.6s12.26-5.13,20.67-8.35Z" style="fill:#ffbda7"></path><path d="M329,273a3.33,3.33,0,0,1-2.87-.22l-49-28.29a3.33,3.33,0,0,1-1.63-2.33l-5.36-32a3.48,3.48,0,0,1,0-.55,3.34,3.34,0,0,1,1-2.37l50.93,29.41a2.47,2.47,0,0,1,1.19,1.72Z" style="fill:#37474f"></path><path d="M329.84,272.6l-.34.19a2.77,2.77,0,0,1-.46.22l-5.8-34.62a2.47,2.47,0,0,0-1.19-1.72l-50.93-29.41a3.5,3.5,0,0,1,.68-.52l51,29.46a2.48,2.48,0,0,1,1.2,1.73Z" style="fill:#455a64"></path><path d="M322.77,237.32l.79-.46a2.53,2.53,0,0,1,.47,1.07l5.81,34.67-.34.19a2.77,2.77,0,0,1-.46.22l-5.8-34.62A2.3,2.3,0,0,0,322.77,237.32Z" style="fill:#263238"></path><path d="M301.44,243.48c-.36-2.14-2.57-5-4.94-6.35s-4-.74-3.64,1.4,2.58,5,4.94,6.35S301.8,245.62,301.44,243.48Z" style="fill:#8AB0B0"></path></g><g id="freepik--arm--inject-27"><path d="M375.38,241.56c1.41-1.2,24.63-9.1,28.87-11.37s4.66-4.29,5.86-10.72c1.74-9.33,3.23-32.17,2.85-40.09-.27-5.73-3.42-10.65-12.25-11.79-2.66,2.84-5.27,8.57-4.19,21.56-.44,5.58-3,29.06-3,29.06-3.65,1.9-12.34,7.33-16.6,9.7-3,1.68-5.13,2.56-8.46,4.22-2.56,1.26-5.77,2.34-7.64,4.08S349.5,247.38,347.44,249s-1,3.4,2.83,4.53a11.61,11.61,0,0,0,9.28-1,38.65,38.65,0,0,0,6.31-4.69,9.64,9.64,0,0,0,5.12-1.73C373,244.51,374.22,242.54,375.38,241.56Z" style="fill:#ffbda7"></path><path d="M399.62,166.57c4.37.43,10.42,2.26,12.59,6s2.54,5.36,1.65,17.16c-.83,11-1.77,17.67-1.77,17.67S406.2,210.94,395,205l1-16S393.54,172.63,399.62,166.57Z" style="fill:#8AB0B0"></path></g><g id="freepik--shadow--inject-27" style="opacity:0.2"><path id="freepik--shadow--inject-27" d="M246.17,274.77A18.43,18.43,0,0,1,236.05,272c-2.37-1.57-3.67-3.53-3.67-5.52s1.3-4,3.67-5.53a19.93,19.93,0,0,1,20.24,0c2.37,1.57,3.67,3.53,3.67,5.53s-1.3,3.95-3.67,5.52A18.43,18.43,0,0,1,246.17,274.77Z"></path></g><g id="freepik--Coffee--inject-27"><path d="M257.67,265.46a7.1,7.1,0,0,0,2.76-.39c1.22-.45,2.28-1.76,3.25-4,.81-1.9,2.12-6.07,1.2-8.21-1.17-2.73-4.48-2.83-6.67-2.89l-.75,0-.12,2.61c.26,0,.67.09,1,.1,1.23,0,3.95.46,4.25,1.16,1,1.69-1.59,8.18-2.72,8.89a10.09,10.09,0,0,1-4.24,0l-.86,2.18A9.77,9.77,0,0,0,257.67,265.46Z" style="fill:#8AB0B0"></path><path d="M257.67,265.46a7.1,7.1,0,0,0,2.76-.39c1.22-.45,2.28-1.76,3.25-4,.81-1.9,2.12-6.07,1.2-8.21-1.17-2.73-4.48-2.83-6.67-2.89l-.75,0-.12,2.61c.26,0,.67.09,1,.1,1.23,0,3.95.46,4.25,1.16,1,1.69-1.59,8.18-2.72,8.89a10.09,10.09,0,0,1-4.24,0l-.86,2.18A9.77,9.77,0,0,0,257.67,265.46Z" style="opacity:0.5"></path><path d="M234.66,246.81c.25-1.11,1.35-2.2,3.29-3.07a23.44,23.44,0,0,1,16.36-.17c2,.83,3.08,1.89,3.36,3h.06c.85,7.29-.37,15.77-2.92,20.48a.31.31,0,0,1-.05.1.25.25,0,0,1,0,.07h0a5.68,5.68,0,0,1-2.11,2,13.74,13.74,0,0,1-12.41.13,5.51,5.51,0,0,1-2.15-2h0l0-.06-.06-.11c-2.65-4.66-4-13.11-3.35-20.42Z" style="fill:#8AB0B0"></path><path d="M234.66,246.81c.25-1.11,1.35-2.2,3.29-3.07a23.44,23.44,0,0,1,16.36-.17c2,.83,3.08,1.89,3.36,3h.06c.85,7.29-.37,15.77-2.92,20.48a.31.31,0,0,1-.05.1.25.25,0,0,1,0,.07h0a5.68,5.68,0,0,1-2.11,2,13.74,13.74,0,0,1-12.41.13,5.51,5.51,0,0,1-2.15-2h0l0-.06-.06-.11c-2.65-4.66-4-13.11-3.35-20.42Z" style="opacity:0.4"></path><path d="M238,243.74c-4.49,2-4.46,5.19.08,7.11a23.5,23.5,0,0,0,16.36-.18c4.49-2,4.46-5.19-.08-7.1A23.44,23.44,0,0,0,238,243.74Z" style="fill:#8AB0B0"></path><path d="M239.55,245c-3.63,1.32-3.61,3.39,0,4.64a23.14,23.14,0,0,0,13.19-.14c3.63-1.32,3.61-3.4,0-4.65A23,23,0,0,0,239.55,245Z" style="opacity:0.4"></path><path d="M239.58,247.76a6.65,6.65,0,0,0-1.82.94,6.85,6.85,0,0,0,1.84.9,23.14,23.14,0,0,0,13.19-.14,6.94,6.94,0,0,0,1.82-.94,6.85,6.85,0,0,0-1.84-.9A23.13,23.13,0,0,0,239.58,247.76Z" style="fill:#263238"></path></g></g></g></svg>