<svg xmlns="http://www.w3.org/2000/svg" viewBox="0 0 750 500"><g id="freepik--background-simple--inject-2"><path d="M27.93,210C13.33,95.17,143.53,29.12,216.68,32.24c42,1.79,79.14,24.13,115.78,47.5,66,42.1,121,44.58,171,18.57,45.76-23.79,103-15.93,146.14,13.91,21.9,15.15,41.36,37.16,52.57,65.28,14.11,35.37,1.57,76.19-5.1,111.93-3.26,17.49-6.34,36.5-1.61,54,14,52,35,57,32,83l-3,26h-692s-16-29.71-7-75.53c4.18-21.27,14.9-36.52,25.76-53,5.56-8.45,10.68-17.69,12.82-28.25,6-30-15.07-32.63-26.53-51.51C31.67,234.49,29.4,221.65,27.93,210Z" style="fill:#27A594"></path><path d="M27.93,210C13.33,95.17,143.53,29.12,216.68,32.24c42,1.79,79.14,24.13,115.78,47.5,66,42.1,121,44.58,171,18.57,45.76-23.79,103-15.93,146.14,13.91,21.9,15.15,41.36,37.16,52.57,65.28,14.11,35.37,1.57,76.19-5.1,111.93-3.26,17.49-6.34,36.5-1.61,54,14,52,35,57,32,83l-3,26h-692s-16-29.71-7-75.53c4.18-21.27,14.9-36.52,25.76-53,5.56-8.45,10.68-17.69,12.82-28.25,6-30-15.07-32.63-26.53-51.51C31.67,234.49,29.4,221.65,27.93,210Z" style="fill:#fff;opacity:0.7000000000000001"></path></g><g id="freepik--character-2--inject-2"><path d="M519.7,377.29l-6-1.65s1.65,0,.33-3a21.93,21.93,0,0,0-4-5.61L507.81,341s-7.6,35.34-6.28,50.86a174.25,174.25,0,0,0,5.29,29.39S522,412.62,526,407s-1.32-22.46-2-24.44S519.7,377.29,519.7,377.29Z" style="fill:#27A594;stroke:#263238;stroke-linecap:round;stroke-miterlimit:10"></path><path d="M583.43,308.6s3.63-3.63,5.61-2.31,11.56,13.54,11.23,16.84-7.93,18.16-9.25,22.13-17.83,21.13-17.83,21.13L536.87,403.7,528.28,375l39.3-22.13s1.32-8.58,2-10.56S583.43,308.6,583.43,308.6Z" style="fill:#fff;stroke:#263238;stroke-linecap:round;stroke-miterlimit:10"></path><path d="M581.78,318.84s6.27-4,7.59-2.64,7.59,9.57,7.59,9.57" style="fill:none;stroke:#263238;stroke-linecap:round;stroke-miterlimit:10"></path><polyline points="581.77 326.44 585.74 326.76 593.99 335.35" style="fill:none;stroke:#263238;stroke-linecap:round;stroke-miterlimit:10"></polyline><line x1="581.44" y1="335.02" x2="589.37" y2="340.3" style="fill:none;stroke:#263238;stroke-linecap:round;stroke-miterlimit:10"></line><path d="M575.83,346.25s1.65,3.3,3,3.63,3.52-3.07,3.52-3.07" style="fill:none;stroke:#263238;stroke-linecap:round;stroke-miterlimit:10"></path><rect x="551.73" y="297.38" width="32.03" height="48.54" transform="translate(19.67 -32.47) rotate(3.33)" style="fill:#27A594;stroke:#263238;stroke-linecap:round;stroke-miterlimit:10"></rect><path d="M534.22,370l9.25,33-18.82,11.23s-5.61-5.28-7.27-17.5a89.26,89.26,0,0,1-.66-20.47Z" style="fill:#fff;stroke:#263238;stroke-linecap:round;stroke-miterlimit:10"></path><path d="M434.5,266s-47.88,21.46-52.83,35-6.94,76.28.33,104.68,5.94,46.89,5.94,46.89H517.38S507.15,403,507.15,397.1s3-34.34,3.3-54.81,4-35.34-3-44.91-27.08-19.82-27.08-19.82S447.38,261.05,434.5,266Z" style="fill:#27A594;stroke:#263238;stroke-linecap:round;stroke-miterlimit:10"></path><path d="M516.72,183.78S527,208.22,528,210.2s-4.62,7.6-4,9.58.66,6.27,4.29,9.24,4.29,7.6,1.32,9.25-6.27,3.63-6.27,3.63-.33.66-.33,10.24.66,15.52-2.31,18.16-10.9,2.64-16.51.66-8.92-3.3-8.92-3.3l-16.51,21.46-5.61,14.53-3.31-16.84-22.78-29.72,2.64-14.2s-6.6-14.86-7.26-19.81-1.32-21.46,22.78-35S516.72,182.13,516.72,183.78Z" style="fill:#fff;stroke:#263238;stroke-linecap:round;stroke-miterlimit:10"></path><path d="M503.85,212.84a14.11,14.11,0,0,1,12.87-2.31" style="fill:none;stroke:#263238;stroke-linecap:round;stroke-miterlimit:10;stroke-width:3px"></path><path d="M504.18,271c5.61,2,13.53,2,16.51-.66s2.31-8.59,2.31-18.16c0-4.4.07-6.91.14-8.34-3.69-1.4-12.18-4-18-1.24-7.6,3.63-13.54,21.14-12.22,25.76a3.6,3.6,0,0,0,.84,1.25l1.47-1.91S498.56,269,504.18,271Z" style="fill:#263238;stroke:#263238;stroke-linecap:round;stroke-miterlimit:10"></path><path d="M504.18,248.84s4.95,7.26,12.87,3" style="fill:none;stroke:#fff;stroke-linecap:round;stroke-miterlimit:10"></path><path d="M514.74,220.77c0,2.37-1,4.29-2.14,4.29s-2.15-1.92-2.15-4.29,1-4.29,2.15-4.29S514.74,218.4,514.74,220.77Z" style="fill:#263238"></path><path d="M470.82,220.44s8.26-4.63,11.23-7.6,3.63-6.93,2.31-11.22-1.32-6-.33-7.27,30.05-5.94,36-10.24,12.21-8.25-5.62-17.5-40.28-7.26-60.1,1.65-27.73,23.78-26.74,35,9.57,27.73,14.53,34.67,9.24,9.91,11.22,5.61-2-3.3,3-12.55A21,21,0,0,1,470.82,220.44Z" style="fill:#263238;stroke:#263238;stroke-linecap:round;stroke-miterlimit:10"></path><path d="M467.85,223.41s-3-10.57-11.88-10.57-6.61,13.21-4.3,17.83S466.86,237,466.86,237" style="fill:#fff;stroke:#263238;stroke-linecap:round;stroke-miterlimit:10"></path><polygon points="442.1 251.15 430.54 264.69 459.27 308.93 469.83 286.81 442.1 251.15" style="fill:#fff;stroke:#263238;stroke-linecap:round;stroke-miterlimit:10"></polygon><rect x="466.92" y="217.37" width="25.31" height="52.7" rx="2.32" transform="translate(-57.63 215.37) rotate(-23.92)" style="fill:#263238;stroke:#263238;stroke-linecap:round;stroke-miterlimit:10"></rect><path d="M474.13,288.46s-12.22-30.38-12.22-31.37,12.55-28.73,15.85-30.71,4.29,1.65,3,4.62-6.6,12.55-6.6,12.55l-2,11.56s6.93-11.89,8.58-13.87,9.91-3,11.89-3.3,6.6,1.65,6.27,3.3-2.64,2-2.64,2l-5.61.66-5.95,1.32-4.29,7.6s7.6-5.62,8.59-6.28,4.62-.33,6.27-.33,8.27,3,6.6,4c-4,2.31-6.93,2-7.92,1.65s-5.61,2.31-5.61,2.31l-3,4.95s7.6-2.64,9.25-3.3,4.62,1.32,6.27,2.31,5,2.64,3.31,4.62-6.28-.33-6.28-.33L490,264.69l-2,5.94s5.28,11.23,5.61,17.83,0,9.25-1,12.22-15.85,60.76-15.85,60.76l-22.13-11.23,18.83-56.14A13.58,13.58,0,0,0,474.13,288.46Z" style="fill:#fff;stroke:#263238;stroke-linecap:round;stroke-miterlimit:10"></path><path d="M413.7,302.66s11.56-3.63,20.14,21.13,12.22,37.65,12.22,37.65,5.94,39,4.62,51.84-8.25,20.47-17.17,21.46-11.23,3-31.37-29.05-25.76-72.32-22.45-84.54" style="fill:#27A594;stroke:#263238;stroke-linecap:round;stroke-miterlimit:10"></path><path d="M409.71,374.09c10.43-1.84,26.07-4.12,31.4-2.42" style="fill:none;stroke:#263238;stroke-linecap:round;stroke-miterlimit:10"></path><path d="M399.83,376s2.35-.5,6-1.17" style="fill:none;stroke:#263238;stroke-linecap:round;stroke-miterlimit:10"></path><path d="M409.08,367.05s24.76-3.63,35.33,2.64" style="fill:none;stroke:#263238;stroke-linecap:round;stroke-miterlimit:10"></path><path d="M435.49,360.45a12.6,12.6,0,0,1,7.93,5.61" style="fill:none;stroke:#263238;stroke-linecap:round;stroke-miterlimit:10"></path><path d="M420.63,387.19l28.73-33.68,29.72,16.84s-24.11,52.84-33,59.11-16.18,7.27-20.8,4.62-10.57-14.53-10.57-14.53" style="fill:#27A594;stroke:#263238;stroke-linecap:round;stroke-miterlimit:10"></path><polygon points="452.99 340.63 446.72 353.51 479.41 374.65 486.68 356.15 452.99 340.63" style="fill:#fff;stroke:#263238;stroke-linecap:round;stroke-miterlimit:10"></polygon><path d="M510.45,342.29c-.66-16.52-6.27-26.09-6.27-26.09" style="fill:none;stroke:#263238;stroke-linecap:round;stroke-miterlimit:10"></path></g><g id="freepik--character-1--inject-2"><path d="M199.85,291.43s-11.33-4.72-20.15,2.83-47.21,70.82-47.21,70.82l24.87,15.73,13.53-17.94s10.39,15.74,12.91,23.92-35.25,65.79-35.25,65.79H288.92s-8.18-60.43-8.18-70.19,20.14-34.62,30.84-61.06,9.13-25.49.63-29.59-32.1-.63-34.94-5.66-7.87-17-6.92-25.18-2.52-9.76-2.52-9.76l-34,14.17s.31,14.16-3.15,19.82S213.38,293.32,199.85,291.43Z" style="fill:#27A594;stroke:#263238;stroke-linecap:round;stroke-miterlimit:10"></path><path d="M212.7,396.15c12.28,8.9,32.89,22.85,46.64,27" style="fill:none;stroke:#263238;stroke-linecap:round;stroke-miterlimit:10"></path><path d="M202.44,388.47s2.31,1.82,6.1,4.63" style="fill:none;stroke:#263238;stroke-linecap:round;stroke-miterlimit:10"></path><path d="M248.94,428.26a47,47,0,0,0,9.89,3.15" style="fill:none;stroke:#263238;stroke-linecap:round;stroke-miterlimit:10"></path><path d="M210.2,406.06s18.7,12.85,34.58,20.34" style="fill:none;stroke:#263238;stroke-linecap:round;stroke-miterlimit:10"></path><path d="M277.27,286.08c-2.83-5-7.87-17-6.92-25.18s-2.52-9.76-2.52-9.76l-34,14.17s.31,14.16-3.15,19.82c-2.6,4.26-11,6.73-20.81,6.91,1,9.17,5.78,33.66,27.74,36.21,23.9,2.78,44.12-25.36,51.56-39.14C283.32,288.81,278.46,288.19,277.27,286.08Z" style="fill:#a6a6a6;stroke:#263238;stroke-linecap:round;stroke-miterlimit:10"></path><path d="M267.54,255.13s-5.09-2.89-4.13,8.21,4.74,13,3.79,16.13-6.61,3.78-3.46,9.13,8.81,4.09,7.87,7.24-7.87,3.46-5.67,9.12,9.76,9.45,12.28,9.76-4.09-4.09,3.46-5.35,14.79-1.57,19.2-6.61A42.44,42.44,0,0,1,311,294.58a35.65,35.65,0,0,1,7.87.94l3.46,1a16.49,16.49,0,0,0,6.61-5.36c3.15-4.09-1.89-6.92-1.89-11s6.3-6,6.93-11.33-.32-10.07-4.72-14.79-1.89-7.56.94-16.37-.63-13.53-4.72-19.2-.63-10.07-1.26-15.42-11.33-22-26.44-34.31-38.08-10.38-62.32-2.2-45.63,22.34-42.8,29.9,5,7.24,4.41,11.64-12.59,8.5-11.34,18.89,9.76,19.51,7.87,23.6-8.49,2.84-5.66,8.5,7.87,3.78,8.81,7.24-5.35,7.24-4.41,12.9,6,1,8.19,5.67,0,5.35-.63,6.61,14.79,3.46,23,.94,8.82-5.35,10.08-12.59a70.14,70.14,0,0,0,1.25-10.38s10.39-13.54,18.26-17S267.54,255.13,267.54,255.13Z" style="fill:#5e5e5e;stroke:#263238;stroke-linecap:round;stroke-miterlimit:10"></path><path d="M285.09,283.88a3.69,3.69,0,0,0-.89,2.07c-.73,6.59,2.57,7.69,2.57,7.69" style="fill:none;stroke:#263238;stroke-linecap:round;stroke-miterlimit:10"></path><path d="M304.31,228.61c10.35,7.52,10.56,16.79,4.79,22.56-7.69,7.68-9.52,9.52-4.39,16.11s9.52,8.78,2.19,11.71c-4.57,1.83-12,1.52-17.11,2.63" style="fill:none;stroke:#263238;stroke-linecap:round;stroke-miterlimit:10"></path><path d="M279.81,215.65s-12.82-1.47,10.62,6.22A55.17,55.17,0,0,1,301.87,227" style="fill:none;stroke:#263238;stroke-linecap:round;stroke-miterlimit:10"></path><path d="M322.57,275.25c-3.54,3.2-6.79,5.54-5.78,7.77,1.83,4,8.79,1.46,7,6.22" style="fill:none;stroke:#263238;stroke-linecap:round;stroke-miterlimit:10"></path><path d="M296.83,188.06a28.45,28.45,0,0,1,4.22,2.33c10.25,7,6.22,10.25,8.05,19.77s15.74,8.78,16.11,19.77-7.69,15.38-7.32,22,14.28,4.39,11.71,13.55a17,17,0,0,1-3.72,6.49" style="fill:none;stroke:#263238;stroke-linecap:round;stroke-miterlimit:10"></path><path d="M271.39,182.7a88.75,88.75,0,0,1,21,3.64" style="fill:none;stroke:#263238;stroke-linecap:round;stroke-miterlimit:10"></path><path d="M201.12,254.72c-3.35,3.2-4.79,3.4-4.79,3.4" style="fill:none;stroke:#263238;stroke-linecap:round;stroke-miterlimit:10"></path><path d="M207,201.23c1.79,2.34,2.89,4.72,1.42,8.56-2.93,7.69-14.28,8.42-14.28,18.31s17.21,15,11,22.33l-1,1.2" style="fill:none;stroke:#263238;stroke-linecap:round;stroke-miterlimit:10"></path><path d="M235.14,181.23s-36.25,4.4-33.69,11.72a16.78,16.78,0,0,0,2.58,4.64" style="fill:none;stroke:#263238;stroke-linecap:round;stroke-miterlimit:10"></path><path d="M262.79,173.59c7.65-4.27,19.53-9.15,29.47-5.54" style="fill:none;stroke:#263238;stroke-linecap:round;stroke-miterlimit:10"></path><path d="M254.91,178.67s1.82-1.41,4.79-3.26" style="fill:none;stroke:#263238;stroke-linecap:round;stroke-miterlimit:10"></path><path d="M201.42,310s-2.83-23.92-2.52-29.9,2.84-12.59,3.78-13.85,9.13-10.07,9.13-10.07l2.2-2.52,7.55,9.76s-3.46,9.13-3.77,11.33a46.06,46.06,0,0,0-.32,5.35,37.16,37.16,0,0,1,4.09-7.55c2.84-4.1,6.61-1.58,4.73,2.83s-5,8.18-5,11.64.63,6.61-.94,10.39a51.93,51.93,0,0,1-5,8.5l-7.87,20.14-10.07-12.27Z" style="fill:#a6a6a6;stroke:#263238;stroke-linecap:round;stroke-miterlimit:10"></path><path d="M198.9,280.1s2.84-5.35,4.41-7.55,10.15-11,11.68-12.73,4.06,1.08,1.54,4.54-9.76,11.33-9.76,12.91a11.67,11.67,0,0,0,.63,5.35c.95,2.51,6.93,9.75,5.35,18.88" style="fill:#a6a6a6;stroke:#263238;stroke-linecap:round;stroke-miterlimit:10"></path><path d="M274.86,205.53s-7.63,3.23-5.29,4.11,8.51,4.69,5.87,5-9.68-5.28-6.16-.88,5.87,7,5.87,7,1.17,3.81.88,5.87-.88,2.93-.59,3.81,0,6.16-3.81,15.26-8.51,15.26-17.32,18.78-15.24,11.32-25.51,9-12.05-9.26-13.81-13.66-7.92-22.89-5.87-32,4.7-5.28,5.58-17.31,3.81-21.72,18.19-27.59,33.16,1.18,34.92,4.7,2.06,5.57,3.23,7.33,5,5,4.7,6.75S274.86,205.53,274.86,205.53Z" style="fill:#a6a6a6;stroke:#263238;stroke-linecap:round;stroke-miterlimit:10"></path><path d="M227,235.17s-5.28,7.63-3.81,8.8a20.1,20.1,0,0,0,6.45,2.64" style="fill:none;stroke:#263238;stroke-linecap:round;stroke-miterlimit:10"></path><path d="M222,250.72s5.86,6.75,18.48.59" style="fill:none;stroke:#263238;stroke-linecap:round;stroke-miterlimit:10"></path><path d="M241.7,230.76a8.85,8.85,0,0,1,7.92,4.11" style="fill:none;stroke:#263238;stroke-linecap:round;stroke-miterlimit:10;stroke-width:2px"></path><path d="M219.69,223.72a7.37,7.37,0,0,1,7.92,3.82" style="fill:none;stroke:#263238;stroke-linecap:round;stroke-miterlimit:10;stroke-width:2px"></path><path d="M231.43,216.09s-4.11-7.33-13.5-2.93" style="fill:none;stroke:#263238;stroke-linecap:round;stroke-miterlimit:10;stroke-width:2px"></path><path d="M243.46,220.2s10.27-1.47,13.2,8.22" style="fill:none;stroke:#263238;stroke-linecap:round;stroke-miterlimit:10;stroke-width:2px"></path><rect x="255.48" y="230.01" width="24.12" height="50.23" rx="2.32" transform="translate(263.62 -114.54) rotate(45.75)" style="fill:#263238;stroke:#263238;stroke-linecap:round;stroke-miterlimit:10"></rect><path d="M253.14,257.17l6.75,14.38s-12,6.75-12.26,10.57-4.41,20.27-4.41,21.15,15.7.51,15.7.51l2.14-13.15s18.78-20.25,21.43-23.18,5.17-12.67,5.86-17.91c1.14-8.62-.58-15.55-2.34-14.37s-1.18,3.81-1.18,5.86-1.76,12-1.76,12-3.86-12.45-6.8-15.68c-3.37-3.71-4.06-1.64-3.76.42s4.69,12.91,5.28,15.26-.88,6.16-.88,6.16a45.51,45.51,0,0,0-6.46-11.15c-4.69-6.16-6.16-7.34-7.63-5.87s-.88,2.64.88,4.11,5.87,9.39,6.17,10.27,1.46,7,1.46,7l-3.22,5.58s-.88-2.65-4.7-5.87a60.28,60.28,0,0,1-7.22-7.82,1.83,1.83,0,0,0-3,.11A1.65,1.65,0,0,0,253.14,257.17Z" style="fill:#a6a6a6;stroke:#263238;stroke-linecap:round;stroke-miterlimit:10"></path><path d="M276.91,259.23s.64,6.14.18,7.75-1.61,5.06-1.61,5.06" style="fill:none;stroke:#263238;stroke-linecap:round;stroke-miterlimit:10"></path><path d="M283.07,253.07a98.5,98.5,0,0,1-.46,10,12.58,12.58,0,0,0-.12,4.38" style="fill:none;stroke:#263238;stroke-linecap:round;stroke-miterlimit:10"></path><path d="M268.11,269.21a11.06,11.06,0,0,1-.68,3.75,25.31,25.31,0,0,1-1.38,2.76" style="fill:none;stroke:#263238;stroke-linecap:round;stroke-miterlimit:10"></path><path d="M289.27,302.17s1.32-.88,4.85-3.31,13.22-4.18,21.37-3.52,14.54,2.86,7.05,28.86-35.47,58.39-36.13,59.71-4.85,8.15-6,10.57-3.31,4-9,5.51-17.84,2.86-21.15,1.76-3.74-7.93-7.49-24.67-5.06-73.81-5.06-73.81l22.69-3.53,7.71,48L288,316.93" style="fill:#27A594;stroke:#263238;stroke-linecap:round;stroke-miterlimit:10"></path><path d="M268.12,347.77S275,374,275.61,375.31" style="fill:#fff;stroke:#263238;stroke-linecap:round;stroke-miterlimit:10"></path><path d="M196.39,311.57l16.36,19.52s-15.11,19.51-29.27,36.51-29.58,28.32-35.56,28.64-12.59-3.78-15.43-14.17-3.14-13.84,2.84-18.25S196.39,311.57,196.39,311.57Z" style="fill:#27A594;stroke:#263238;stroke-linecap:round;stroke-miterlimit:10"></path></g><g id="freepik--Line--inject-2"><line x1="437.29" y1="37.61" x2="311.42" y2="452.26" style="fill:none;stroke:#263238;stroke-linecap:round;stroke-miterlimit:10"></line></g></svg>