<?xml version="1.0" encoding="UTF-8"?><svg id="a" xmlns="http://www.w3.org/2000/svg" xmlns:xlink="http://www.w3.org/1999/xlink" viewBox="0 0 891 333"><defs><style>.l,.m,.n,.o,.p{fill:#fff;}.q{fill:#0d9379;}.m{filter:url(#f);}.n{filter:url(#d);}.o{filter:url(#j);}.p{filter:url(#h);}.r{filter:url(#b);}.s{fill:#3ce5c5;opacity:.49;}</style><filter id="b" filterUnits="userSpaceOnUse"><feOffset dx="2" dy="3"/><feGaussianBlur result="c" stdDeviation="3"/><feFlood flood-color="#000" flood-opacity=".2"/><feComposite in2="c" operator="in"/><feComposite in="SourceGraphic"/></filter><filter id="d" filterUnits="userSpaceOnUse"><feOffset dx="2" dy="3"/><feGaussianBlur result="e" stdDeviation="3"/><feFlood flood-color="#000" flood-opacity=".2"/><feComposite in2="e" operator="in"/><feComposite in="SourceGraphic"/></filter><filter id="f" filterUnits="userSpaceOnUse"><feOffset dx="2" dy="3"/><feGaussianBlur result="g" stdDeviation="3"/><feFlood flood-color="#000" flood-opacity=".2"/><feComposite in2="g" operator="in"/><feComposite in="SourceGraphic"/></filter><filter id="h" filterUnits="userSpaceOnUse"><feOffset dx="2" dy="3"/><feGaussianBlur result="i" stdDeviation="3"/><feFlood flood-color="#000" flood-opacity=".2"/><feComposite in2="i" operator="in"/><feComposite in="SourceGraphic"/></filter><filter id="j" filterUnits="userSpaceOnUse"><feOffset dx="2" dy="3"/><feGaussianBlur result="k" stdDeviation="3"/><feFlood flood-color="#000" flood-opacity=".2"/><feComposite in2="k" operator="in"/><feComposite in="SourceGraphic"/></filter></defs><g><path class="s" d="M841.77161,139.01601l-46.77695-62.32502c-9.89817-13.18819-26.08027-20.09397-42.45066-18.11601l-77.36353,9.34752c-16.37039,1.97797-30.44203,12.53919-36.91425,27.70535l-30.58657,71.67254c-6.47223,15.16616-4.36176,32.63316,5.53641,45.82135l46.77695,62.32502c9.89817,13.18819,26.08027,20.09397,42.45066,18.11601l77.36353-9.34752c16.37039-1.97797,30.44203-12.53919,36.91425-27.70535l30.58657-71.67254c6.47223-15.16616,4.36176-32.63316-5.53641-45.82135Z"/><path class="q" d="M817.0572,99.13471l-67.48606-38.9631c-14.28029-8.24473-31.87432-8.24473-46.15461,0l-67.48606,38.9631c-14.28029,8.24473-23.07731,23.48161-23.07731,39.97106v77.92619c0,16.48945,8.79702,31.72634,23.07731,39.97106l67.48606,38.9631c14.28029,8.24473,31.87432,8.24473,46.15461,0l67.48606-38.9631c14.28029-8.24473,23.07731-23.48161,23.07731-39.97106v-77.92619c0-16.48945-8.79702-31.72634-23.07731-39.97106Z"/><g><path d="M178.4834,151.6709c-12.08984,0-21.05566-3.7207-26.90039-11.16504-5.84473-7.44141-8.7666-18.60645-8.7666-33.49414v-1.64844c0-6.79297,.99707-13.21094,2.99707-19.25684,1.99707-6.04395,4.44434-11.11328,7.34277-15.21094v-1.64844l10.49023-1.19922-2.09766,2.54785c-2.79785,4.19629-4.99707,9.36621-6.59375,15.51074-1.59961,6.14453-2.39844,12.56445-2.39844,19.25684,0,12.98926,2.07227,22.65527,6.21973,28.99805,4.14453,6.3457,10.71484,9.5166,19.70703,9.5166,9.68848,0,16.75781-3.64648,21.20508-10.94043,4.44434-7.29102,6.66895-17.88184,6.66895-31.77051,0-10.19043-1.7002-17.9082-5.0957-23.15332-3.39746-5.24512-9.04297-7.86719-16.93457-7.86719h-46.90625l1.19922-8.24219h46.15723c10.8877,0,18.85645,3.32227,23.90234,9.96582,5.04395,6.64453,7.56836,16.31055,7.56836,28.99805,0,16.58496-3.07227,29.19922-9.2168,37.83984-6.14453,8.64258-15.66016,12.96289-28.54785,12.96289Z"/><path d="M233.33008,70.14648l1.19922-8.24219h19.33203v8.24219h-20.53125Zm14.2373,80.02539V61.9043h9.89062v88.26758h-9.89062Z"/><path d="M284.43164,150.17188v-8.24219h25.47559c6.99219,0,12.96289-1.54785,17.9082-4.64551,4.94531-3.0957,8.74121-7.39258,11.38965-12.88867,2.64648-5.49316,3.97168-11.8877,3.97168-19.18164,0-11.48828-2.375-20.45605-7.11816-26.90039-4.74707-6.44336-11.66602-9.66602-20.75586-9.66602-7.49316,0-13.28906,2.02344-17.38379,6.06934-4.09766,4.04688-6.14453,9.26855-6.14453,15.66113,0,4.99609,1.19922,9.29102,3.59668,12.8877s6.14453,5.69434,11.23926,6.29395c.79883,.20117,1.52246,.35156,2.17285,.44922,.64941,.10156,1.22266,.15039,1.72363,.15039l-.59961,7.64258c-.80078,.10059-1.7002,.10059-2.69727,0-1-.09766-2.2998-.24805-3.89648-.44922-7.19336-.99805-12.56445-3.94531-16.11035-8.8418-3.54688-4.89355-5.31934-10.98926-5.31934-18.2832,0-5.79297,1.32324-10.93945,3.9707-15.43555,2.64648-4.49609,6.46777-8.01758,11.46484-10.56543,4.99414-2.54688,10.98926-3.82129,17.9834-3.82129,12.1875,0,21.60352,3.97168,28.24805,11.91406,6.64355,7.94238,9.96582,18.9082,9.96582,32.89453,0,8.99121-1.77441,16.85938-5.31934,23.60254-3.54785,6.74414-8.59375,11.98926-15.13672,15.73535-6.54395,3.74707-14.46094,5.62012-23.75293,5.62012h-24.87598Z"/><path d="M419.75293,150.17188v-61.14355c0-6.3916-1.49805-11.13867-4.49512-14.23633-2.99707-3.0957-7.59375-4.64551-13.78711-4.64551h-30.87207l1.19922-8.24219h30.57129c8.99219,0,15.78516,2.24805,20.38184,6.74316,4.59375,4.49609,6.89355,11.1416,6.89355,19.93164v61.59277h-9.8916Z"/><path d="M450.47461,70.14648l1.19922-8.24219h19.33203v8.24219h-20.53125Zm14.2373,80.02539V61.9043h9.89062v88.26758h-9.89062Z"/><path d="M540.08984,150.17188l25.32617-80.17578h-64.29004l1.19824-8.0918h74.63086l-1.19922,6.74316-25.77539,81.52441h-9.89062Zm-34.16895,29.07324V92.9248l9.89062-1.04883v86.76953l-9.89062,.59961Z"/><path d="M46.00195,293.63672l2.69727-21.28027h5.39453c1.79883,0,3.22266-.32324,4.27148-.97363,1.04883-.64941,1.87305-1.64844,2.47266-2.99805,.59961-1.34863,.89941-2.9707,.89941-4.87012v-55.89746h25.77539v54.84863c0,10.19043-2.37402,17.93359-7.11816,23.22852-4.74609,5.29688-11.71484,7.94238-20.90527,7.94238h-13.4873Zm2.09766-69.53516l2.69727-21.28027h25.62695v21.28027h-28.32422Zm68.03711,69.53516v-57.54688c0-3.99414-1.02539-6.99121-3.07227-8.99121-2.04883-1.99707-4.87109-2.99707-8.4668-2.99707H61.7373v-21.28027h44.05859c11.98926,0,21.00391,2.74902,27.0498,8.24219,6.04395,5.49609,9.06641,13.68848,9.06641,24.57715v57.99609h-25.77539Z"/><path d="M156.14941,224.10156l2.69727-21.28027h23.37891v21.28027h-26.07617Zm11.68945,31.91992v-53.2002h25.77637v53.2002h-25.77637Z"/><path d="M252.95801,293.63672v-57.54688c0-3.99414-1.02637-6.99121-3.07227-8.99121-2.04883-1.99707-4.92188-2.99707-8.61719-2.99707h-30.42188l2.69727-21.28027h29.07324c11.88867,0,20.87988,2.74902,26.97461,8.24219,6.09277,5.49609,9.1416,13.68848,9.1416,24.57715v57.99609h-25.77539Z"/><path d="M294.01953,293.63672v-21.28027h83.02246l-2.69727,21.28027h-80.3252Zm46.00684,0v-57.54688c0-3.99414-1.02539-6.99121-3.07129-8.99121-2.0498-1.99707-4.92285-2.99707-8.61719-2.99707h-29.82227l2.69727-21.28027h28.47363c11.8877,0,20.87988,2.74902,26.97461,8.24219,6.09277,5.49609,9.1416,13.68848,9.1416,24.57715v38.36426c-.89941,3.29688-2.44922,6.64551-4.64551,10.04102-2.19922,3.39746-4.44629,6.59375-6.74414,9.59082h-14.38672Z"/><path d="M387.23145,299.48145l-.15039-21.28027,37.61523-7.19336c3.29688-.69824,6.21875-1.77246,8.7666-3.22168,2.54785-1.44727,4.7207-3.64648,6.51855-6.59375,1.79883-2.94629,3.27148-6.84277,4.4209-11.68945,1.14746-4.84473,1.97168-11.06445,2.47363-18.6582l2.09766-28.02344h25.77637l-2.09863,28.92285c-.40039,5.39551-1.04883,10.69141-1.94824,15.88574-.89941,5.19531-2.32227,10.14062-4.27051,14.83594-1.94824,4.69727-4.67188,8.99121-8.16797,12.8877-3.49805,3.89648-7.96777,7.26855-13.41211,10.11621-5.44629,2.84668-12.11523,5.07129-20.00684,6.66797l-37.61426,7.34375Zm20.53027-15.13574l-15.88477-79.87598,25.17676-2.99707,9.74023,52.15137c.79883,3.49805,.92285,7.09473,.375,10.79004-.55078,3.69727-1.64844,7.26855-3.29688,10.71484-1.64844,3.44727-3.82129,6.51855-6.51953,9.2168h-9.59082Z"/><path d="M548.48047,293.63672v-57.54688c0-3.99414-1-6.99121-2.99707-8.99121-2-1.99707-4.84668-2.99707-8.54199-2.99707h-47.05566l2.69727-21.28027h45.55762c11.98828,0,21.00391,2.74902,27.0498,8.24219,6.04297,5.49609,9.06641,13.68848,9.06641,24.57715v57.99609h-25.77637Zm-56.94629,0v-47.95508l25.77539-1.49902v49.4541h-25.77539Z"/></g><g><g class="r"><path class="l" d="M665.21699,164.73936h-.05413c-3.82682-.03007-6.90481-3.15468-6.87624-6.9815,.29472-38.46516,31.87311-69.75786,70.39391-69.75786s70.1007,31.2927,70.39391,69.75786c.02857,3.82682-3.04943,6.95143-6.87624,6.9815h-.05413c-3.80126,0-6.8988-3.06747-6.92737-6.87624-.23457-30.8807-25.59683-56.00537-56.53617-56.00537s-56.30009,25.12468-56.53617,56.00537c-.03007,3.80877-3.12611,6.87624-6.92737,6.87624Z"/><g><rect class="l" x="649.99551" y="173.16374" width="32.27337" height="63.18821" rx="8.99999" ry="8.99999"/><rect class="l" x="772.99844" y="173.16374" width="32.27337" height="63.18821" rx="8.99999" ry="8.99999"/></g></g><rect class="n" x="737.21494" y="201.54771" width="6.73759" height="40.84325" rx="3.21676" ry="3.21676" transform="translate(518.61439 962.55307) rotate(-90)"/><rect class="m" x="723.30253" y="167.14356" width="6.73759" height="68.66805" rx="3.21676" ry="3.21676" transform="translate(525.19375 928.14891) rotate(-90)"/><rect class="p" x="711.27813" y="158.71444" width="6.73759" height="44.54278" rx="3.21676" ry="3.21676" transform="translate(533.66109 895.63275) rotate(-90)"/><path class="o" d="M746.12481,184.03352l10.89784,6.29187c1.94781,1.12457,4.38256-.28114,4.38256-2.53027v-12.58374c0-2.24913-2.43476-3.65484-4.38256-2.53027l-10.89784,6.29187c-1.94781,1.12457-1.94781,3.93598,0,5.06055Z"/><circle class="l" cx="713.95516" cy="221.96934" r="3.06516"/><circle class="l" cx="704.45317" cy="221.96934" r="3.06516"/><circle class="l" cx="694.95118" cy="221.96934" r="3.06516"/></g></g><circle class="q" cx="465" cy="43" r="7"/><circle class="q" cx="234" cy="105" r="7"/></svg>